<svg viewBox="0 0 27.69 27.69" xmlns="http://www.w3.org/2000/svg"><path d="m13.84 0a13.84 13.84 0 1 0 13.85 13.84 13.86 13.86 0 0 0 -13.85-13.84zm0 24.65a10.81 10.81 0 1 1 10.81-10.81 10.82 10.82 0 0 1 -10.81 10.81z"/><path d="m16.56 10.38-1.06 1.5v-5.43a1.5 1.5 0 0 0 -3 0v9.55s0 .08 0 .13 0 0 0 .07a1.37 1.37 0 0 0 .14.45v.06a1.39 1.39 0 0 0 .36.29 1.4 1.4 0 0 0 .36.2h.07a1.36 1.36 0 0 0 .4.06 1.4 1.4 0 0 0 .3 0h.07l.21-.07h.09l.16-.1.09-.07.14-.14 3.7-4.71a1.4 1.4 0 0 0 -.17-2 1.34 1.34 0 0 0 -1.86.21z"/></svg>